{"title":"SetUp 2011 DVDRip XviD Ac3 Feel-Free","uid":6664651,"size":1094039140,"categoryP":"video","categoryS":"movies","magnet":"?xt=urn:btih:b3a10e32de1b6cbc84d724781beef878629bef7c&amp;dn=SetUp+2011+DVDRip+XviD+Ac3+Feel-Free&amp;tr=udp%3A%2F%2Ftracker.openbittorrent.com%3A80&amp;tr=udp%3A%2F%2Fopen.demonii.com%3A1337&amp;tr=udp%3A%2F%2Ftracker.coppersurfer.tk%3A6969&amp;tr=udp%3A%2F%2Fexodus.desync.com%3A6969","seeders":0,"leechers":0,"uploader":"hiest","files":-1,"time":1315642469,"description":"Full Credits To Feel Free :)\n\n ######## ######## ######## ##          ######## ########  ######## ######## \n ##       ##       ##       ##          ##       ##     ## ##       ##       \n ##       ##       ##       ##          ##       ##     ## ##       ##       \n ######   ######   ######   ##          ######   ########  ######   ######   \n ##       ##       ##       ##          ##       ##   ##   ##       ##       \n ##       ##       ##       ##          ##       ##    ##  ##       ##       \n ##       ######## ######## ########    ##       ##     ## ######## ########\n\n\nGenre:Action | Crime | Drama \n Language:English\n IMDb:http://www.imdb.com/title/tt1748197/\n Source:DVDR UnKnOwN Thanks!\n\nFormat : AVI\n Format/Info : Audio Video Interleave\n File size : 1.02 GiB\n Duration : 1h 25mn\n Overall bit rate : 1 708 Kbps\n\n Video\n ID : 0\n Format : MPEG-4 Visual\n Format profile : Advanced Simple@L5\n Format settings, BVOP : Yes\n Format settings, QPel : No\n Format settings, GMC : No warppoints\n Format settings, Matrix : Default (H.263)\n Codec ID : XVID\n Codec ID/Hint : XviD\n Duration : 1h 25mn\n Bit rate : 1 251 Kbps\n Width : 640 pixels\n Height : 272 pixels\n Display aspect ratio : 2.35:1\n Frame rate : 23.976 fps\n Color space : YUV\n Chroma subsampling : 4:2:0\n Bit depth : 8 bits\n Scan type : Progressive\n Bits/(Pixel*Frame) : 0.300\n Stream size : 763 MiB (73%)\n Writing library : XviD 1.2.1 (UTC 2008-12-04)\n\n Audio\n ID : 1\n Format : AC-3\n Format/Info : Audio Coding 3\n Mode extension : CM (complete main)\n Codec ID : 2000\n Duration : 1h 25mn\n Bit rate mode : Constant\n Bit rate : 448 Kbps\n Channel(s) : 6 channels\n Channel positions : Front: L C R, Side: L R, LFE\n Sampling rate : 48.0 KHz\n Bit depth : 16 bits\n Stream size : 273 MiB (26%)\n Alignment : Aligned on interleaves\n Interleave, duration : 42 ms (1.00 video frame)\n Interleave, preload duration : 512 ms\n\n\n Screen SHots:\n\n &lt;a href=&quot; http://www.pix2links.com/images/81665818288766611868.png&quot; rel=&quot;nofollow&quot; target=&quot;_NEW&quot;&gt; http://www.pix2links.com/images/81665818288766611868.png&lt;/a&gt;\n\n &lt;a href=&quot; http://www.pix2links.com/images/27778242286364461276.png&quot; rel=&quot;nofollow&quot; target=&quot;_NEW&quot;&gt; http://www.pix2links.com/images/27778242286364461276.png&lt;/a&gt;\n\n &lt;a href=&quot; http://www.pix2links.com/images/93197605892152935987.png&quot; rel=&quot;nofollow&quot; target=&quot;_NEW&quot;&gt; http://www.pix2links.com/images/93197605892152935987.png&lt;/a&gt;\n\n &lt;a href=&quot; http://www.pix2links.com/images/96684069647618907448.png&quot; rel=&quot;nofollow&quot; target=&quot;_NEW&quot;&gt; http://www.pix2links.com/images/96684069647618907448.png&lt;/a&gt;\n\n &lt;a href=&quot; http://www.pix2links.com/images/60058643511858179772.png&quot; rel=&quot;nofollow&quot; target=&quot;_NEW&quot;&gt; http://www.pix2links.com/images/60058643511858179772.png&lt;/a&gt;\n\n\n Plot:\n A group of friends become involved in a potentially deadly diamond heist.\n\n\nFull Credits To Feel Free :)\n\n ######## ######## ######## ##          ######## ########  ######## ######## \n ##       ##       ##       ##          ##       ##     ## ##       ##       \n ##       ##       ##       ##          ##       ##     ## ##       ##       \n ######   ######   ######   ##          ######   ########  ######   ######   \n ##       ##       ##       ##          ##       ##   ##   ##       ##       \n ##       ##       ##       ##          ##       ##    ##  ##       ##       \n ##       ######## ######## ########    ##       ##     ## ######## ########","torrent":{"xt":"urn:btih:b3a10e32de1b6cbc84d724781beef878629bef7c","amp;dn":"SetUp+2011+DVDRip+XviD+Ac3+Feel-Free","amp;tr":["udp%3A%2F%2Ftracker.openbittorrent.com%3A80","udp%3A%2F%2Fopen.demonii.com%3A1337","udp%3A%2F%2Ftracker.coppersurfer.tk%3A6969","udp%3A%2F%2Fexodus.desync.com%3A6969"],"infoHash":"b3a10e32de1b6cbc84d724781beef878629bef7c","infoHashBuffer":{"type":"Buffer","data":[179,161,14,50,222,27,108,188,132,215,36,120,27,238,248,120,98,155,239,124]},"announce":[],"urlList":[]}}